# xmcd
#
# Track frame offsets: 
#        150
#        17318
#        35670
#        52810
#        65300
#        84030
#        98985
#        114808
#        129015
#        148153
#        163178
#        178580
#        199330
#        216908
#        232698
#
# Disc length: 3392 seconds
#
# Revision: 0
# Processed by: cddbd v1.5.1PL0 Copyright (c) Steve Scherf et al.
# Submitted via: ExactAudioCopy v0.95a5
#
DISCID=b80d3e0f
DTITLE=范晓萱 - 绝世名伶
DYEAR=1900
DGENRE=Pop
TTITLE0=姐姐妹妹的聚会
TTITLE1=you don't turst me at all
TTITLE2=失控的胖子
TTITLE3=如果我先死了怎么办
TTITLE4=你
TTITLE5=重覆
TTITLE6=缝人
TTITLE7=汪汪汪
TTITLE8=起毛球
TTITLE9=马戏团
TTITLE10=男人
TTITLE11=最好的爱煞人武器
TTITLE12=人类
TTITLE13=等
TTITLE14=回忆
EXTD=
EXTT0=
EXTT1=
EXTT2=
EXTT3=
EXTT4=
EXTT5=
EXTT6=
EXTT7=
EXTT8=
EXTT9=
EXTT10=
EXTT11=
EXTT12=
EXTT13=
EXTT14=
PLAYORDER=
